<svg width="600" height="760" viewBox="0 0 600 760" fill="none" xmlns="http://www.w3.org/2000/svg">
  <rect width="600" height="760" rx="28" fill="white"/>
  <rect x="28" y="28" width="544" height="108" rx="18" fill="#0B255F"/>
  <path d="M406 28H572V136H364L406 28Z" fill="#E33A3D"/>
  <path d="M433 28H572V106H392L433 28Z" fill="white" fill-opacity="0.88"/>
  <circle cx="88" cy="82" r="30" fill="#173C82"/>
  <path d="M72 95C74 78 80 64 88 58C95 64 101 78 103 95H95C94 86 91 76 88 71C85 76 82 86 81 95H72Z" fill="white"/>
  <path d="M88 58C95 64 101 78 103 95H95C94 86 91 76 88 71V58Z" fill="#E33A3D"/>
  <text x="132" y="74" fill="white" font-family="Trebuchet MS, Arial, sans-serif" font-size="18" font-weight="700" letter-spacing="2">PROJECT</text>
  <text x="132" y="102" fill="white" font-family="Trebuchet MS, Arial, sans-serif" font-size="32" font-weight="700">ARCH</text>
  <text x="48" y="194" fill="#0B255F" font-family="Trebuchet MS, Arial, sans-serif" font-size="34" font-weight="700">Bringing Research and</text>
  <text x="48" y="232" fill="#0B255F" font-family="Trebuchet MS, Arial, sans-serif" font-size="34" font-weight="700">Researchers to Life</text>
  <rect x="48" y="268" width="230" height="8" rx="4" fill="#E33A3D"/>
  <rect x="48" y="304" width="200" height="16" rx="8" fill="#DFE8F7"/>
  <rect x="48" y="332" width="248" height="16" rx="8" fill="#DFE8F7"/>
  <rect x="48" y="360" width="214" height="16" rx="8" fill="#DFE8F7"/>
  <rect x="48" y="420" width="152" height="22" rx="11" fill="#E33A3D"/>
  <text x="62" y="436" fill="white" font-family="Trebuchet MS, Arial, sans-serif" font-size="12" font-weight="700">OUR MISSION</text>
  <rect x="48" y="460" width="226" height="14" rx="7" fill="#DFE8F7"/>
  <rect x="48" y="486" width="248" height="14" rx="7" fill="#DFE8F7"/>
  <rect x="48" y="512" width="190" height="14" rx="7" fill="#DFE8F7"/>
  <rect x="320" y="420" width="152" height="22" rx="11" fill="#173C82"/>
  <text x="342" y="436" fill="white" font-family="Trebuchet MS, Arial, sans-serif" font-size="12" font-weight="700">WHY NOW</text>
  <rect x="320" y="460" width="226" height="14" rx="7" fill="#DFE8F7"/>
  <rect x="320" y="486" width="206" height="14" rx="7" fill="#DFE8F7"/>
  <rect x="320" y="512" width="238" height="14" rx="7" fill="#DFE8F7"/>
  <rect x="48" y="576" width="510" height="128" rx="22" fill="#F4F7FB"/>
  <circle cx="106" cy="640" r="28" fill="#173C82"/>
  <circle cx="302" cy="640" r="28" fill="#E33A3D"/>
  <circle cx="494" cy="640" r="28" fill="#173C82"/>
  <rect x="82" y="684" width="48" height="8" rx="4" fill="#B7C6E4"/>
  <rect x="278" y="684" width="48" height="8" rx="4" fill="#B7C6E4"/>
  <rect x="470" y="684" width="48" height="8" rx="4" fill="#B7C6E4"/>
</svg>
